<?xml version="1.0" encoding="UTF-8"?>
<!--Generator: Apple Native CoreSVG 149-->
<!DOCTYPE svg
PUBLIC "-//W3C//DTD SVG 1.1//EN"
       "http://www.w3.org/Graphics/SVG/1.1/DTD/svg11.dtd">
<svg version="1.1" xmlns="http://www.w3.org/2000/svg" xmlns:xlink="http://www.w3.org/1999/xlink" width="3300" height="2200">
 <!--glyph: "uni100832.medium", point size: 100.000000, font version: "Version 16.0d12e3", template writer version: "8"-->
 <g id="Notes">
  <rect height="2200" id="artboard" style="fill:white;opacity:1" width="3300" x="0" y="0"/>
  <line id="" style="fill:none;stroke:black;opacity:1;stroke-width:0.5;" x1="263" x2="3036" y1="292" y2="292"/>
  <text style="stroke:none;fill:black;font-family:-apple-system,&quot;SF Pro Display&quot;,&quot;SF Pro Text&quot;,Helvetica,sans-serif;font-weight:bold;" transform="matrix(1 0 0 1 263 322)">Weight/Scale Variations</text>
  <text style="stroke:none;fill:black;font-family:-apple-system,&quot;SF Pro Display&quot;,&quot;SF Pro Text&quot;,Helvetica,sans-serif;text-anchor:middle;" transform="matrix(1 0 0 1 559.711 322)">Ultralight</text>
  <text style="stroke:none;fill:black;font-family:-apple-system,&quot;SF Pro Display&quot;,&quot;SF Pro Text&quot;,Helvetica,sans-serif;text-anchor:middle;" transform="matrix(1 0 0 1 856.422 322)">Thin</text>
  <text style="stroke:none;fill:black;font-family:-apple-system,&quot;SF Pro Display&quot;,&quot;SF Pro Text&quot;,Helvetica,sans-serif;text-anchor:middle;" transform="matrix(1 0 0 1 1153.13 322)">Light</text>
  <text style="stroke:none;fill:black;font-family:-apple-system,&quot;SF Pro Display&quot;,&quot;SF Pro Text&quot;,Helvetica,sans-serif;text-anchor:middle;" transform="matrix(1 0 0 1 1449.84 322)">Regular</text>
  <text style="stroke:none;fill:black;font-family:-apple-system,&quot;SF Pro Display&quot;,&quot;SF Pro Text&quot;,Helvetica,sans-serif;text-anchor:middle;" transform="matrix(1 0 0 1 1746.56 322)">Medium</text>
  <text style="stroke:none;fill:black;font-family:-apple-system,&quot;SF Pro Display&quot;,&quot;SF Pro Text&quot;,Helvetica,sans-serif;text-anchor:middle;" transform="matrix(1 0 0 1 2043.27 322)">Semibold</text>
  <text style="stroke:none;fill:black;font-family:-apple-system,&quot;SF Pro Display&quot;,&quot;SF Pro Text&quot;,Helvetica,sans-serif;text-anchor:middle;" transform="matrix(1 0 0 1 2339.98 322)">Bold</text>
  <text style="stroke:none;fill:black;font-family:-apple-system,&quot;SF Pro Display&quot;,&quot;SF Pro Text&quot;,Helvetica,sans-serif;text-anchor:middle;" transform="matrix(1 0 0 1 2636.69 322)">Heavy</text>
  <text style="stroke:none;fill:black;font-family:-apple-system,&quot;SF Pro Display&quot;,&quot;SF Pro Text&quot;,Helvetica,sans-serif;text-anchor:middle;" transform="matrix(1 0 0 1 2933.4 322)">Black</text>
  <line id="" style="fill:none;stroke:black;opacity:1;stroke-width:0.5;" x1="263" x2="3036" y1="1903" y2="1903"/>
  <g id="" transform="matrix(1 0 0 1 263 1933)">
   <path d="M9.24805 0.830078C13.5547 0.830078 17.1387-2.74414 17.1387-7.05078C17.1387-11.3574 13.5449-14.9316 9.23828-14.9316C4.94141-14.9316 1.36719-11.3574 1.36719-7.05078C1.36719-2.74414 4.95117 0.830078 9.24805 0.830078ZM9.24805-0.654297C5.70312-0.654297 2.87109-3.49609 2.87109-7.05078C2.87109-10.6055 5.69336-13.4473 9.23828-13.4473C12.793-13.4473 15.6348-10.6055 15.6445-7.05078C15.6543-3.49609 12.8027-0.654297 9.24805-0.654297ZM9.22852-3.62305C9.69727-3.62305 9.9707-3.93555 9.9707-4.45312L9.9707-6.31836L12.002-6.31836C12.5-6.31836 12.832-6.57227 12.832-7.04102C12.832-7.51953 12.5195-7.7832 12.002-7.7832L9.9707-7.7832L9.9707-9.81445C9.9707-10.332 9.69727-10.6543 9.22852-10.6543C8.75977-10.6543 8.50586-10.3125 8.50586-9.81445L8.50586-7.7832L6.49414-7.7832C5.97656-7.7832 5.64453-7.51953 5.64453-7.04102C5.64453-6.57227 5.99609-6.31836 6.49414-6.31836L8.50586-6.31836L8.50586-4.45312C8.50586-3.95508 8.75977-3.62305 9.22852-3.62305Z"/>
  </g>
  <g id="" transform="matrix(1 0 0 1 281.506 1933)">
   <path d="M11.709 2.91016C17.1582 2.91016 21.6699-1.61133 21.6699-7.05078C21.6699-12.5 17.1484-17.0117 11.6992-17.0117C6.25977-17.0117 1.74805-12.5 1.74805-7.05078C1.74805-1.61133 6.26953 2.91016 11.709 2.91016ZM11.709 1.25C7.09961 1.25 3.41797-2.44141 3.41797-7.05078C3.41797-11.6602 7.08984-15.3516 11.6992-15.3516C16.3086-15.3516 20-11.6602 20.0098-7.05078C20.0195-2.44141 16.3184 1.25 11.709 1.25ZM11.6797-2.66602C12.207-2.66602 12.5098-3.01758 12.5098-3.59375L12.5098-6.23047L15.3223-6.23047C15.8691-6.23047 16.25-6.51367 16.25-7.03125C16.25-7.55859 15.8887-7.86133 15.3223-7.86133L12.5098-7.86133L12.5098-10.6836C12.5098-11.25 12.207-11.6113 11.6797-11.6113C11.1621-11.6113 10.8789-11.2305 10.8789-10.6836L10.8789-7.86133L8.07617-7.86133C7.50977-7.86133 7.13867-7.55859 7.13867-7.03125C7.13867-6.51367 7.5293-6.23047 8.07617-6.23047L10.8789-6.23047L10.8789-3.59375C10.8789-3.03711 11.1621-2.66602 11.6797-2.66602Z"/>
  </g>
  <g id="" transform="matrix(1 0 0 1 304.924 1933)">
   <path d="M14.9707 5.66406C21.9336 5.66406 27.6953-0.0976562 27.6953-7.05078C27.6953-14.0137 21.9238-19.7754 14.9609-19.7754C8.00781-19.7754 2.25586-14.0137 2.25586-7.05078C2.25586-0.0976562 8.01758 5.66406 14.9707 5.66406ZM14.9707 3.84766C8.93555 3.84766 4.08203-1.01562 4.08203-7.05078C4.08203-13.0957 8.92578-17.9492 14.9609-17.9492C21.0059-17.9492 25.8594-13.0957 25.8691-7.05078C25.8789-1.01562 21.0156 3.84766 14.9707 3.84766ZM14.9414-1.38672C15.5176-1.38672 15.8594-1.77734 15.8594-2.38281L15.8594-6.13281L19.7754-6.13281C20.3711-6.13281 20.7812-6.46484 20.7812-7.02148C20.7812-7.59766 20.3906-7.93945 19.7754-7.93945L15.8594-7.93945L15.8594-11.8652C15.8594-12.4805 15.5176-12.8711 14.9414-12.8711C14.375-12.8711 14.0527-12.4609 14.0527-11.8652L14.0527-7.93945L10.1465-7.93945C9.53125-7.93945 9.13086-7.59766 9.13086-7.02148C9.13086-6.46484 9.55078-6.13281 10.1465-6.13281L14.0527-6.13281L14.0527-2.38281C14.0527-1.79688 14.375-1.38672 14.9414-1.38672Z"/>
  </g>
  <text style="stroke:none;fill:black;font-family:-apple-system,&quot;SF Pro Display&quot;,&quot;SF Pro Text&quot;,Helvetica,sans-serif;font-weight:bold;" transform="matrix(1 0 0 1 263 1953)">Design Variations</text>
  <text style="stroke:none;fill:black;font-family:-apple-system,&quot;SF Pro Display&quot;,&quot;SF Pro Text&quot;,Helvetica,sans-serif;" transform="matrix(1 0 0 1 263 1971)">Symbols are supported in up to nine weights and three scales.</text>
  <text style="stroke:none;fill:black;font-family:-apple-system,&quot;SF Pro Display&quot;,&quot;SF Pro Text&quot;,Helvetica,sans-serif;" transform="matrix(1 0 0 1 263 1989)">For optimal layout with text and other symbols, vertically align</text>
  <text style="stroke:none;fill:black;font-family:-apple-system,&quot;SF Pro Display&quot;,&quot;SF Pro Text&quot;,Helvetica,sans-serif;" transform="matrix(1 0 0 1 263 2007)">symbols with the adjacent text.</text>
  <line id="" style="fill:none;stroke:#00AEEF;stroke-width:0.5;opacity:1.0;" x1="776" x2="776" y1="1919" y2="1933"/>
  <g id="" transform="matrix(1 0 0 1 776 1933)">
   <path d="M3.31055 0.126953C3.82812 0.126953 4.08203-0.0683594 4.26758-0.605469L5.52734-4.0625L11.2891-4.0625L12.5488-0.605469C12.7344-0.0683594 12.9883 0.126953 13.4961 0.126953C14.0137 0.126953 14.3457-0.185547 14.3457-0.673828C14.3457-0.839844 14.3164-0.986328 14.2383-1.20117L9.6582-13.3887C9.43359-13.9941 9.0332-14.2871 8.4082-14.2871C7.80273-14.2871 7.39258-13.9941 7.17773-13.3984L2.59766-1.19141C2.51953-0.976562 2.49023-0.830078 2.49023-0.664062C2.49023-0.175781 2.80273 0.126953 3.31055 0.126953ZM6.00586-5.53711L8.37891-12.1094L8.42773-12.1094L10.8008-5.53711Z"/>
  </g>
  <line id="" style="fill:none;stroke:#00AEEF;stroke-width:0.5;opacity:1.0;" x1="792.836" x2="792.836" y1="1919" y2="1933"/>
  <text style="stroke:none;fill:black;font-family:-apple-system,&quot;SF Pro Display&quot;,&quot;SF Pro Text&quot;,Helvetica,sans-serif;font-weight:bold;" transform="matrix(1 0 0 1 776 1953)">Margins</text>
  <text style="stroke:none;fill:black;font-family:-apple-system,&quot;SF Pro Display&quot;,&quot;SF Pro Text&quot;,Helvetica,sans-serif;" transform="matrix(1 0 0 1 776 1971)">Leading and trailing margins on the left and right side of each symbol</text>
  <text style="stroke:none;fill:black;font-family:-apple-system,&quot;SF Pro Display&quot;,&quot;SF Pro Text&quot;,Helvetica,sans-serif;" transform="matrix(1 0 0 1 776 1989)">can be adjusted by modifying the x-location of the margin guidelines.</text>
  <text style="stroke:none;fill:black;font-family:-apple-system,&quot;SF Pro Display&quot;,&quot;SF Pro Text&quot;,Helvetica,sans-serif;" transform="matrix(1 0 0 1 776 2007)">Modifications are automatically applied proportionally to all</text>
  <text style="stroke:none;fill:black;font-family:-apple-system,&quot;SF Pro Display&quot;,&quot;SF Pro Text&quot;,Helvetica,sans-serif;" transform="matrix(1 0 0 1 776 2025)">scales and weights.</text>
  <g id="" transform="matrix(1 0 0 1 1289 1933)">
   <path d="M2.8418 1.86523L4.54102 3.57422C5.40039 4.44336 6.38672 4.38477 7.31445 3.35938L17.4902-7.85156C17.7539-7.76367 18.0273-7.7832 18.3398-7.8418L19.4043-8.03711L20.0684-7.36328L20.0293-6.80664C19.9902-6.30859 20.1172-5.92773 20.6055-5.44922L21.3672-4.70703C21.8457-4.22852 22.4609-4.19922 22.9297-4.66797L25.8398-7.58789C26.3086-8.05664 26.2891-8.65234 25.8105-9.13086L25.0391-9.89258C24.5605-10.3711 24.1895-10.5273 23.7109-10.4883L23.1348-10.4395L22.4902-11.0742L22.7344-12.1973C22.8613-12.7637 22.7051-13.2031 22.1191-13.7891L19.9219-15.9766C16.582-19.2969 12.1484-19.2188 9.25781-16.3281C8.83789-15.918 8.80859-15.3418 9.04297-14.9512C9.27734-14.5898 9.73633-14.3555 10.3809-14.5215C11.8457-14.8633 13.3691-14.9219 14.7949-13.9844L14.209-12.5293C14.0137-12.0508 13.9844-11.6504 14.1113-11.2891L3.04688-0.898438C2.06055 0.0195312 1.98242 0.996094 2.8418 1.86523ZM10.752-15.957C13.1836-17.7344 16.4746-17.4316 18.7012-15.2051L21.1328-12.793C21.3672-12.5586 21.4062-12.373 21.3379-12.0312L21.0156-10.5469L22.5195-9.0625L23.5059-9.12109C23.7598-9.13086 23.8379-9.11133 24.0332-8.91602L24.6094-8.33984L22.168-5.89844L21.5918-6.47461C21.3965-6.66992 21.3672-6.74805 21.377-7.01172L21.4453-7.98828L19.9512-9.47266L18.4277-9.21875C18.1055-9.15039 17.959-9.17969 17.7148-9.41406L15.7129-11.416C15.459-11.6504 15.4297-11.8164 15.5859-12.1875L16.4648-14.2773C14.9023-15.7324 12.8711-16.3574 10.8398-15.7617C10.6836-15.7227 10.625-15.8496 10.752-15.957ZM5.27344 2.30469L4.10156 1.14258C3.63281 0.683594 3.74023 0.341797 4.14062-0.0195312L14.9512-10.1953L16.416-8.71094L6.42578 2.27539C6.07422 2.67578 5.74219 2.77344 5.27344 2.30469Z"/>
  </g>
  <text style="stroke:none;fill:black;font-family:-apple-system,&quot;SF Pro Display&quot;,&quot;SF Pro Text&quot;,Helvetica,sans-serif;font-weight:bold;" transform="matrix(1 0 0 1 1289 1953)">Exporting</text>
  <text style="stroke:none;fill:black;font-family:-apple-system,&quot;SF Pro Display&quot;,&quot;SF Pro Text&quot;,Helvetica,sans-serif;" transform="matrix(1 0 0 1 1289 1971)">Symbols should be outlined when exporting to ensure the</text>
  <text style="stroke:none;fill:black;font-family:-apple-system,&quot;SF Pro Display&quot;,&quot;SF Pro Text&quot;,Helvetica,sans-serif;" transform="matrix(1 0 0 1 1289 1989)">design is preserved when submitting to Xcode.</text>
  <text id="template-version" style="stroke:none;fill:black;font-family:-apple-system,&quot;SF Pro Display&quot;,&quot;SF Pro Text&quot;,Helvetica,sans-serif;text-anchor:end;" transform="matrix(1 0 0 1 3036 1933)">Template v.2.0</text>
  <text style="stroke:none;fill:black;font-family:-apple-system,&quot;SF Pro Display&quot;,&quot;SF Pro Text&quot;,Helvetica,sans-serif;text-anchor:end;" transform="matrix(1 0 0 1 3036 1951)">Requires Xcode 12 or greater</text>
  <text style="stroke:none;fill:black;font-family:-apple-system,&quot;SF Pro Display&quot;,&quot;SF Pro Text&quot;,Helvetica,sans-serif;text-anchor:end;" transform="matrix(1 0 0 1 3036 1969)">Generated from pills.fill</text>
  <text style="stroke:none;fill:black;font-family:-apple-system,&quot;SF Pro Display&quot;,&quot;SF Pro Text&quot;,Helvetica,sans-serif;text-anchor:end;" transform="matrix(1 0 0 1 3036 1987)">Typeset at 100 points</text>
  <text style="stroke:none;fill:black;font-family:-apple-system,&quot;SF Pro Display&quot;,&quot;SF Pro Text&quot;,Helvetica,sans-serif;" transform="matrix(1 0 0 1 263 726)">Small</text>
  <text style="stroke:none;fill:black;font-family:-apple-system,&quot;SF Pro Display&quot;,&quot;SF Pro Text&quot;,Helvetica,sans-serif;" transform="matrix(1 0 0 1 263 1156)">Medium</text>
  <text style="stroke:none;fill:black;font-family:-apple-system,&quot;SF Pro Display&quot;,&quot;SF Pro Text&quot;,Helvetica,sans-serif;" transform="matrix(1 0 0 1 263 1586)">Large</text>
 </g>
 <g id="Guides">
  <g id="H-reference" style="fill:#27AAE1;stroke:none;" transform="matrix(1 0 0 1 339 696)">
   <path d="M0.976562 0L3.66211 0L12.9883-24.4629L45.752-24.4629L55.127 0L57.7637 0L30.6152-70.459L28.125-70.459ZM29.3457-67.1387L29.4434-67.1387L44.873-26.709L13.8672-26.709Z"/>
  </g>
  <line id="Baseline-S" style="fill:none;stroke:#27AAE1;opacity:1;stroke-width:0.5;" x1="263" x2="3036" y1="696" y2="696"/>
  <line id="Capline-S" style="fill:none;stroke:#27AAE1;opacity:1;stroke-width:0.5;" x1="263" x2="3036" y1="625.541" y2="625.541"/>
  <g id="H-reference" style="fill:#27AAE1;stroke:none;" transform="matrix(1 0 0 1 339 1126)">
   <path d="M0.976562 0L3.66211 0L12.9883-24.4629L45.752-24.4629L55.127 0L57.7637 0L30.6152-70.459L28.125-70.459ZM29.3457-67.1387L29.4434-67.1387L44.873-26.709L13.8672-26.709Z"/>
  </g>
  <line id="Baseline-M" style="fill:none;stroke:#27AAE1;opacity:1;stroke-width:0.5;" x1="263" x2="3036" y1="1126" y2="1126"/>
  <line id="Capline-M" style="fill:none;stroke:#27AAE1;opacity:1;stroke-width:0.5;" x1="263" x2="3036" y1="1055.54" y2="1055.54"/>
  <g id="H-reference" style="fill:#27AAE1;stroke:none;" transform="matrix(1 0 0 1 339 1556)">
   <path d="M0.976562 0L3.66211 0L12.9883-24.4629L45.752-24.4629L55.127 0L57.7637 0L30.6152-70.459L28.125-70.459ZM29.3457-67.1387L29.4434-67.1387L44.873-26.709L13.8672-26.709Z"/>
  </g>
  <line id="Baseline-L" style="fill:none;stroke:#27AAE1;opacity:1;stroke-width:0.5;" x1="263" x2="3036" y1="1556" y2="1556"/>
  <line id="Capline-L" style="fill:none;stroke:#27AAE1;opacity:1;stroke-width:0.5;" x1="263" x2="3036" y1="1485.54" y2="1485.54"/>
  <line id="left-margin" style="fill:none;stroke:#00AEEF;stroke-width:0.5;opacity:1.0;" x1="1381.09" x2="1381.09" y1="1030.79" y2="1150.12"/>
  <line id="right-margin" style="fill:none;stroke:#00AEEF;stroke-width:0.5;opacity:1.0;" x1="1518.59" x2="1518.59" y1="1030.79" y2="1150.12"/>
 </g>
 <g id="Symbols">
  <g id="Black-L" transform="matrix(1 0 0 1 2837.36 1556)">
   <path d="M94.1406-34.1309L137.695-77.7344L122.266-93.1641C108.789-106.689 90.6738-106.787 77.8809-94.043C65.1855-81.3477 65.2344-63.0371 78.7109-49.6094ZM108.252-20.0195L123.779-4.49219C137.256 8.98438 155.322 9.0332 168.164-3.66211C180.908-16.2598 180.811-34.6191 167.383-48.0957L151.855-63.623ZM14.502-9.375L87.9883-9.375C83.8867-25.8301 68.9941-38.0371 51.2695-38.0371C33.5449-38.0371 18.6035-25.8301 14.502-9.375ZM14.502 8.98438C18.5547 25.4883 33.4473 37.6953 51.2695 37.6953C68.9941 37.6953 83.8379 25.4395 87.9883 8.98438Z"/>
  </g>
  <g id="Heavy-L" transform="matrix(1 0 0 1 2542.57 1556)">
   <path d="M93.1152-33.3984L135.059-75.3418L118.457-91.9922C105.469-104.98 88.1348-105.127 75.7324-92.7734C63.4277-80.4688 63.4766-62.9883 76.4648-50ZM105.225-21.2402L121.875-4.58984C134.912 8.39844 152.148 8.49609 164.6-3.80859C176.953-16.0645 176.855-33.5938 163.867-46.582L147.217-63.2324ZM14.502-8.98438L85.8887-8.98438C82.2754-25.3418 67.6758-37.5977 50.2441-37.5977C32.7148-37.5977 18.0664-25.3418 14.502-8.98438ZM14.502 6.93359C18.0176 23.3398 32.666 35.6445 50.2441 35.6445C67.6758 35.6445 82.2754 23.291 85.8887 6.93359Z"/>
  </g>
  <g id="Bold-L" transform="matrix(1 0 0 1 2248.01 1556)">
   <path d="M91.8945-32.5684L132.031-72.7051L114.16-90.625C101.709-103.076 85.3027-103.271 73.3398-91.3086C61.4258-79.4922 61.5234-62.9395 74.0234-50.4395ZM101.807-22.6562L119.775-4.6875C132.227 7.76367 148.633 7.91016 160.596-4.00391C172.559-15.8203 172.412-32.4219 159.961-44.873L141.992-62.8418ZM14.502-8.54492L83.4961-8.54492C80.5176-24.7559 66.2109-37.1094 49.0234-37.1094C31.8359-37.1094 17.4805-24.7559 14.502-8.54492ZM14.502 4.63867C17.4805 20.9473 31.7383 33.3008 49.0234 33.3008C66.2109 33.3008 80.4688 20.8984 83.4961 4.63867Z"/>
  </g>
  <g id="Semibold-L" transform="matrix(1 0 0 1 1952.79 1556)">
   <path d="M91.1133-32.0312L129.98-70.8984L111.23-89.6973C99.1699-101.758 83.3496-101.953 71.6797-90.332C60.0586-78.8086 60.2051-62.8906 72.3145-50.7812ZM99.4629-23.584L118.311-4.78516C130.371 7.32422 146.191 7.4707 157.861-4.10156C169.482-15.625 169.336-31.5918 157.227-43.7012L138.379-62.5488ZM14.502-8.20312L81.8848-8.20312C79.2969-24.3652 65.1855-36.8164 48.2422-36.8164C31.2012-36.8164 17.0898-24.3652 14.502-8.20312ZM14.502 3.02734C17.0898 19.2871 31.1523 31.6895 48.2422 31.6895C65.2344 31.6895 79.248 19.2383 81.8848 3.02734Z"/>
  </g>
  <g id="Medium-L" transform="matrix(1 0 0 1 1657.2 1556)">
   <path d="M90.4785-31.5918L128.418-69.5312L108.984-89.0137C97.2168-100.781 81.8359-100.977 70.4102-89.5996C59.0332-78.3203 59.1797-62.8418 70.9961-50.9766ZM97.7051-24.3164L117.188-4.83398C129.004 6.98242 144.336 7.17773 155.811-4.19922C167.188-15.4785 167.041-30.957 155.176-42.8223L135.693-62.3047ZM14.502-7.95898L80.6641-7.95898C78.3691-24.1211 64.4043-36.5723 47.6074-36.5723C30.7617-36.5723 16.7969-24.1211 14.502-7.95898ZM14.502 1.85547C16.7969 18.0176 30.6641 30.4688 47.6074 30.4688C64.4531 30.4688 78.3203 18.0176 80.6641 1.85547Z"/>
  </g>
  <g id="Regular-L" transform="matrix(1 0 0 1 1361.98 1556)">
   <path d="M89.6973-31.0059L126.367-67.7246L106.104-88.0859C94.6777-99.5117 79.9316-99.707 68.75-88.623C57.666-77.6367 57.8613-62.793 69.3359-51.3184ZM95.3613-25.2441L115.723-4.88281C127.148 6.54297 141.895 6.73828 153.076-4.3457C164.16-15.332 163.965-30.1758 152.49-41.6504L132.129-62.0117ZM14.502-7.66602L79.0527-7.66602C77.1484-23.7305 63.4277-36.2305 46.8262-36.2305C30.127-36.2305 16.4062-23.7305 14.502-7.66602ZM14.502 0.244141C16.4062 16.4062 30.0293 28.9062 46.8262 28.9062C63.4277 28.9062 77.0996 16.3574 79.0527 0.244141Z"/>
  </g>
  <g id="Light-L" transform="matrix(1 0 0 1 1066.39 1556)">
   <path d="M88.9648-30.7617L124.951-66.748L103.906-87.793C92.8223-98.9258 78.5645-99.0234 67.5781-88.1348C56.7383-77.3438 56.7871-62.9395 67.9199-51.8066ZM93.4082-26.3184L114.551-5.17578C125.635 5.9082 139.941 6.00586 150.879-4.88281C161.768-15.6738 161.67-30.0781 150.537-41.2109L129.443-62.3047ZM14.502-6.78711L77.9785-6.78711C76.5137-22.9492 62.793-35.5957 46.2891-35.5957C29.6875-35.5957 15.9668-22.9492 14.502-6.78711ZM14.502-0.585938C15.9668 15.5762 29.5898 28.2715 46.2891 28.2715C62.8418 28.2715 76.4648 15.5273 77.9785-0.585938Z"/>
  </g>
  <g id="Thin-L" transform="matrix(1 0 0 1 771.193 1556)">
   <path d="M88.0859-30.4688L123.096-65.4297L101.074-87.4512C90.4297-98.1445 76.7578-98.0957 66.0645-87.5C55.4688-76.9531 55.4199-63.1348 66.0645-52.4414ZM90.8691-27.6855L112.939-5.56641C123.584 5.07812 137.256 5.0293 147.949-5.56641C158.594-16.1133 158.643-29.9316 147.949-40.5762L125.879-62.6953ZM14.502-5.66406L76.5625-5.66406C75.6348-21.875 62.0117-34.7656 45.5566-34.7656C29.0527-34.7656 15.4297-21.875 14.502-5.66406ZM14.502-1.75781C15.4297 14.5508 28.9551 27.4414 45.5566 27.4414C62.0605 27.4414 75.5859 14.4531 76.5625-1.75781Z"/>
  </g>
  <g id="Ultralight-L" transform="matrix(1 0 0 1 475.263 1556)">
   <path d="M87.5977-30.2734L122.119-64.7949L99.6094-87.3047C89.1602-97.7051 75.8301-97.6074 65.2832-87.1582C54.7852-76.7578 54.6875-63.2324 65.0879-52.7832ZM89.5508-28.3691L112.158-5.76172C122.559 4.63867 135.938 4.54102 146.484-5.9082C156.934-16.3086 157.031-29.834 146.631-40.2832L124.023-62.8418ZM14.502-5.07812L75.8301-5.07812C75.1465-21.3379 61.5723-34.3262 45.2148-34.3262C28.7598-34.3262 15.1855-21.3379 14.502-5.07812ZM14.502-2.34375C15.1855 14.0137 28.6621 27.002 45.2148 27.002C61.6699 27.002 75.1465 13.916 75.8301-2.34375Z"/>
  </g>
  <g id="Black-M" transform="matrix(1 0 0 1 2856.98 1126)">
   <path d="M74.0234-35.2539L109.57-70.8008L98.7305-81.6406C87.793-92.5781 72.9492-92.5781 62.6465-82.2266C52.3926-71.9727 52.3438-56.9824 63.1836-46.0938ZM86.9629-22.3145L97.8516-11.4746C108.789-0.488281 123.535-0.585938 133.936-10.8398C144.238-21.0449 144.238-36.1328 133.398-47.0215L122.51-57.8613ZM11.2305-15.2832L70.459-15.2832C66.7969-28.1738 54.9316-37.6465 40.8691-37.6465C26.8066-37.6465 14.8926-28.1738 11.2305-15.2832ZM11.2305 1.31836C14.8438 14.3066 26.7578 23.7793 40.8691 23.7793C54.9316 23.7793 66.7969 14.2578 70.459 1.31836Z"/>
  </g>
  <g id="Heavy-M" transform="matrix(1 0 0 1 2562.08 1126)">
   <path d="M73.0469-34.5215L107.031-68.5059L95.1172-80.3711C84.6191-90.8691 70.5566-90.918 60.5957-81.0059C50.6836-71.0938 50.6836-56.8359 61.1328-46.3867ZM84.1309-23.4375L96.0938-11.4746C106.592-0.976562 120.605-0.976562 130.615-10.8887C140.527-20.7031 140.527-35.0098 130.078-45.459L118.115-57.373ZM11.2305-15.0391L68.4082-15.0391C65.2344-27.832 53.6133-37.3535 39.8438-37.3535C26.0742-37.3535 14.4043-27.832 11.2305-15.0391ZM11.2305-0.683594C14.3555 12.1582 25.9766 21.6797 39.8438 21.6797C53.6133 21.6797 65.2344 12.1094 68.4082-0.683594Z"/>
  </g>
  <g id="Bold-M" transform="matrix(1 0 0 1 2267.39 1126)">
   <path d="M71.9238-33.6914L104.15-65.8691L91.1133-78.9551C81.1035-88.9648 67.8223-89.0625 58.3008-79.5898C48.8281-70.1172 48.877-56.7383 58.8379-46.7285ZM80.957-24.6094L94.0918-11.5234C104.102-1.51367 117.334-1.41602 126.904-10.8887C136.426-20.3125 136.328-33.7402 126.318-43.75L113.232-56.8359ZM11.2305-14.7949L66.1621-14.7949C63.4766-27.4902 52.1973-37.0117 38.7207-37.0117C25.1953-37.0117 13.916-27.4902 11.2305-14.7949ZM11.2305-2.92969C13.8672 9.76562 25.1465 19.2871 38.7207 19.2871C52.1973 19.2871 63.4277 9.7168 66.1621-2.92969Z"/>
  </g>
  <g id="Semibold-M" transform="matrix(1 0 0 1 1972.08 1126)">
   <path d="M71.1914-33.1055L102.197-64.1113L88.3301-78.0273C78.6621-87.6465 65.9668-87.8418 56.6895-78.6133C47.5098-69.4336 47.6074-56.6406 57.2754-46.9727ZM78.8086-25.4395L92.7246-11.5234C102.393-1.85547 115.088-1.75781 124.365-10.9375C133.545-20.0684 133.447-32.8613 123.779-42.5293L109.814-56.4941ZM11.2305-14.6484L64.5996-14.6484C62.2559-27.1973 51.2207-36.7676 37.9395-36.7676C24.6094-36.7676 13.5742-27.1973 11.2305-14.6484ZM11.2305-4.49219C13.5254 8.10547 24.5605 17.6758 37.9395 17.6758C51.2207 17.6758 62.2559 8.10547 64.5996-4.49219Z"/>
  </g>
  <g id="Medium-M" transform="matrix(1 0 0 1 1676.44 1126)">
   <path d="M70.6055-32.666L100.684-62.7441L86.1816-77.2949C76.8066-86.6699 64.5508-86.8652 55.5176-77.8809C46.5332-68.9453 46.6797-56.5918 56.1035-47.168ZM77.1484-26.0742L91.6992-11.5234C101.123-2.14844 113.33-1.95312 122.412-10.9375C131.396-19.873 131.25-32.2266 121.826-41.6504L107.275-56.2012ZM11.2305-14.5508L63.4277-14.5508C61.377-27.002 50.4883-36.5723 37.3535-36.5723C24.1699-36.5723 13.2812-27.002 11.2305-14.5508ZM11.2305-5.66406C13.2812 6.88477 24.1211 16.4551 37.3535 16.4551C50.4883 16.4551 61.3281 6.83594 63.4277-5.66406Z"/>
  </g>
  <g id="Regular-M" transform="matrix(1 0 0 1 1381.09 1126)">
   <path d="M69.873-32.0801L98.7305-60.9863L83.4473-76.3184C74.4141-85.3516 62.6953-85.5957 53.9551-76.9043C45.2637-68.2617 45.4102-56.4941 54.4922-47.4121ZM75-26.9043L90.3809-11.5234C99.4141-2.49023 111.133-2.29492 119.873-10.9863C128.564-19.6289 128.369-31.3965 119.287-40.4785L103.906-55.8594ZM11.2305-14.3555L61.8652-14.3555C60.1562-26.7578 49.5117-36.377 36.5723-36.377C23.584-36.377 12.9395-26.7578 11.2305-14.3555ZM11.2305-7.22656C12.9395 5.22461 23.5352 14.8438 36.5723 14.8438C49.5117 14.8438 60.1074 5.22461 61.8652-7.22656Z"/>
  </g>
  <g id="Light-M" transform="matrix(1 0 0 1 1085.41 1126)">
   <path d="M69.2383-31.8848L97.4609-60.1074L81.4941-76.0742C72.7539-84.8633 61.4746-84.9609 52.8809-76.4648C44.3848-68.0176 44.4824-56.6406 53.2715-47.8516ZM73.2422-27.832L89.3066-11.8164C98.0469-3.07617 109.326-2.92969 117.92-11.4746C126.416-19.9219 126.318-31.2988 117.529-40.0391L101.514-56.1035ZM11.2305-13.5742L60.8887-13.5742C59.5703-26.0742 48.9258-35.791 36.084-35.791C23.1934-35.791 12.5488-26.0742 11.2305-13.5742ZM11.2305-8.00781C12.5488 4.54102 23.1445 14.2578 36.084 14.2578C48.9746 14.2578 59.5215 4.49219 60.8887-8.00781Z"/>
  </g>
  <g id="Thin-M" transform="matrix(1 0 0 1 790.065 1126)">
   <path d="M68.457-31.5918L95.8008-58.9355L78.9551-75.7812C70.6055-84.1309 59.8633-84.1309 51.5137-75.8789C43.2617-67.627 43.2129-56.7871 51.6113-48.4375ZM70.9473-29.0527L87.8906-12.1582C96.2402-3.80859 106.934-3.80859 115.283-12.1094C123.584-20.3125 123.584-31.1523 115.234-39.502L98.291-56.3965ZM11.2305-12.5488L59.6191-12.5488C58.7891-25.0977 48.1934-35.0586 35.4492-35.0586C22.6562-35.0586 12.0605-25.0977 11.2305-12.5488ZM11.2305-9.0332C12.0605 3.56445 22.5586 13.5254 35.4492 13.5254C48.291 13.5254 58.7891 3.51562 59.6191-9.0332Z"/>
  </g>
  <g id="Ultralight-M" transform="matrix(1 0 0 1 494.037 1126)">
   <path d="M68.0176-31.4453L94.9219-58.3496L77.6367-75.6348C69.4824-83.7891 59.0332-83.6914 50.8301-75.5371C42.6758-67.4805 42.5781-56.8848 50.7324-48.7305ZM69.7754-29.6875L87.1582-12.3535C95.3125-4.19922 105.762-4.24805 113.965-12.4023C122.119-20.5078 122.168-31.1035 114.014-39.209L96.6797-56.5918ZM11.2305-12.0117L58.9844-12.0117C58.3984-24.6094 47.8516-34.668 35.1562-34.668C22.3633-34.668 11.8164-24.6094 11.2305-12.0117ZM11.2305-9.57031C11.8164 3.07617 22.3145 13.1348 35.1562 13.1348C47.9004 13.1348 58.3984 3.02734 58.9844-9.57031Z"/>
  </g>
  <g id="Black-S" transform="matrix(1 0 0 1 2873.66 696)">
   <path d="M57.9102-35.2051L85.6445-62.9395L77.0996-71.4844C68.5547-80.0293 56.9824-80.0293 48.9258-71.9727C40.918-63.9648 40.8691-52.2461 49.3652-43.75ZM67.9199-25.1953L76.5137-16.6016C85.0586-8.05664 96.582-8.10547 104.688-16.1133C112.744-24.0723 112.744-35.8398 104.248-44.3359L95.6543-52.9297ZM8.78906-19.5801L55.0293-19.5801C52.1973-29.6875 42.9199-37.1094 31.9336-37.1094C20.9473-37.1094 11.6211-29.6875 8.78906-19.5801ZM8.78906-6.73828C11.5723 3.41797 20.8984 10.8398 31.9336 10.8398C42.9199 10.8398 52.1973 3.36914 55.0293-6.73828Z"/>
  </g>
  <g id="Heavy-S" transform="matrix(1 0 0 1 2578.22 696)">
   <path d="M57.2266-34.668L83.8379-61.2793L74.5605-70.5566C66.3086-78.8086 55.2734-78.8574 47.4609-71.0449C39.7461-63.3301 39.7461-52.1484 47.9492-43.9453ZM65.9668-25.9277L75.293-16.6016C83.5449-8.34961 94.5312-8.34961 102.393-16.0645C110.156-23.7793 110.107-35.0098 101.904-43.2129L92.5781-52.5391ZM8.78906-19.4824L53.5645-19.4824C51.0742-29.4922 41.9922-36.9629 31.2012-36.9629C20.4102-36.9629 11.3281-29.4922 8.78906-19.4824ZM8.78906-8.20312C11.2793 1.85547 20.3613 9.27734 31.2012 9.27734C41.9922 9.27734 51.0742 1.80664 53.5645-8.20312Z"/>
  </g>
  <g id="Bold-S" transform="matrix(1 0 0 1 2282.95 696)">
   <path d="M56.4941-34.0332L81.7871-59.375L71.6797-69.5312C63.8184-77.3926 53.3691-77.5391 45.8496-70.0195C38.3789-62.5977 38.4766-52.0508 46.3379-44.1406ZM63.7695-26.709L73.9258-16.5527C81.7871-8.69141 92.2363-8.59375 99.7559-16.0645C107.275-23.4375 107.178-34.0332 99.2676-41.9434L89.1113-52.0996ZM8.78906-19.4336L51.9531-19.4336C49.8047-29.2969 40.9668-36.7676 30.4199-36.7676C19.8242-36.7676 10.9375-29.2969 8.78906-19.4336ZM8.78906-9.81445C10.9375 0.0976562 19.7754 7.56836 30.4199 7.56836C40.9668 7.56836 49.8047 0.0976562 51.9531-9.81445Z"/>
  </g>
  <g id="Semibold-S" transform="matrix(1 0 0 1 1987.21 696)">
   <path d="M55.957-33.5938L80.4199-58.1055L69.7266-68.7988C62.1094-76.4648 52.002-76.6113 44.7266-69.3359C37.4512-62.1094 37.5488-51.9531 45.2148-44.2871ZM62.2559-27.2949L72.9492-16.5527C80.6152-8.93555 90.6738-8.78906 97.998-16.0156C105.273-23.2422 105.127-33.3984 97.4609-41.0645L86.7188-51.8066ZM8.78906-19.3848L50.8789-19.3848C48.9258-29.1992 40.2832-36.6211 29.834-36.6211C19.3848-36.6211 10.6934-29.1992 8.78906-19.3848ZM8.78906-10.9375C10.6934-1.07422 19.3359 6.34766 29.834 6.34766C40.2832 6.34766 48.9258-1.12305 50.8789-10.9375Z"/>
  </g>
  <g id="Medium-S" transform="matrix(1 0 0 1 1691.23 696)">
   <path d="M55.5664-33.3008L79.3457-57.0801L68.2617-68.2617C60.791-75.7324 51.0254-75.9277 43.8477-68.7988C36.7676-61.7188 36.9141-51.9043 44.3848-44.3848ZM61.084-27.7344L72.2656-16.5527C79.7363-9.08203 89.4531-8.88672 96.6309-16.0156C103.76-23.0469 103.613-32.9102 96.0938-40.3809L84.9121-51.5625ZM8.78906-19.3359L50-19.3359C48.291-29.0527 39.7461-36.5234 29.4434-36.5234C19.0918-36.5234 10.5469-29.0527 8.78906-19.3359ZM8.78906-11.8164C10.5469-2.00195 19.043 5.41992 29.4434 5.41992C39.7461 5.41992 48.2422-2.00195 50-11.8164Z"/>
  </g>
  <g id="Regular-S" transform="matrix(1 0 0 1 1395.5 696)">
   <path d="M55.0293-32.8613L77.9785-55.8105L66.3086-67.5293C59.082-74.7559 49.707-75 42.7734-68.1152C35.8398-61.2305 36.0352-51.8066 43.3105-44.5312ZM59.5703-28.2715L71.3379-16.5527C78.5645-9.32617 87.8906-9.08203 94.873-16.0156C101.758-22.8516 101.562-32.2754 94.2871-39.5508L82.5684-51.2695ZM8.78906-19.2871L48.9258-19.2871C47.4121-28.9551 39.0137-36.377 28.8574-36.377C18.7012-36.377 10.3027-28.9551 8.78906-19.2871ZM8.78906-12.8906C10.3027-3.17383 18.6523 4.24805 28.8574 4.24805C39.0137 4.24805 47.3633-3.17383 48.9258-12.8906Z"/>
  </g>
  <g id="Light-S" transform="matrix(1 0 0 1 1099.69 696)">
   <path d="M54.4922-32.666L76.8555-55.0293L64.5996-67.334C57.6172-74.3164 48.6328-74.4629 41.8457-67.6758C35.1074-60.9863 35.2051-51.9531 42.1875-44.9707ZM58.0566-29.1016L70.3613-16.7969C77.3438-9.81445 86.3281-9.66797 93.1152-16.4062C99.8535-23.0957 99.7559-32.1777 92.7734-39.1602L80.4199-51.4648ZM8.78906-18.5547L48.0957-18.5547C46.875-28.3203 38.5254-35.8887 28.4668-35.8887C18.3105-35.8887 9.96094-28.3203 8.78906-18.5547ZM8.78906-13.623C9.96094-3.80859 18.2617 3.75977 28.4668 3.75977C38.5742 3.75977 46.875-3.85742 48.0957-13.623Z"/>
  </g>
  <g id="Thin-S" transform="matrix(1 0 0 1 804.176 696)">
   <path d="M53.7598-32.4219L75.3418-54.0039L62.3047-67.0898C55.7129-73.6816 47.2168-73.7305 40.625-67.1875C34.082-60.6934 34.082-52.0996 40.7227-45.459ZM56.0059-30.1758L69.0918-17.0898C75.7324-10.4492 84.2285-10.4492 90.8203-16.9922C97.3633-23.4375 97.3145-32.0801 90.7227-38.6719L77.6367-51.7578ZM8.78906-17.6758L46.9727-17.6758C46.1914-27.4902 37.8906-35.2539 27.8809-35.2539C17.8223-35.2539 9.57031-27.4902 8.78906-17.6758ZM8.78906-14.502C9.57031-4.63867 17.7734 3.125 27.8809 3.125C37.9395 3.125 46.1914-4.6875 46.9727-14.502Z"/>
  </g>
  <g id="Ultralight-S" transform="matrix(1 0 0 1 508.075 696)">
   <path d="M53.418-32.3242L74.6094-53.4668L61.1328-66.9434C54.7363-73.3398 46.4355-73.3398 39.9902-66.8945C33.5449-60.5469 33.5449-52.1973 39.9902-45.752ZM54.9805-30.7129L68.457-17.2363C74.9023-10.791 83.1543-10.8398 89.6484-17.2852C96.0449-23.6328 96.0938-31.9824 89.6484-38.4277L76.1719-51.9043ZM8.78906-17.1875L46.3867-17.1875C45.8496-27.0508 37.5977-34.9121 27.5879-34.9121C17.5781-34.9121 9.32617-27.0508 8.78906-17.1875ZM8.78906-14.9902C9.32617-5.07812 17.5293 2.7832 27.5879 2.7832C37.5977 2.7832 45.8496-5.12695 46.3867-14.9902Z"/>
  </g>
 </g>
</svg>
